<?xml version="1.0" encoding="UTF-8"?>
<svg width="164px" height="129px" viewBox="0 0 164 129" version="1.1" xmlns="http://www.w3.org/2000/svg" xmlns:xlink="http://www.w3.org/1999/xlink">
    <!-- Generator: sketchtool 61.2 (101010) - https://sketch.com -->
    <title>63ED26A9-CDCA-4C7A-89FA-EDF8F533AC1C</title>
    <desc>Created with sketchtool.</desc>
    <g id="Soluciones-Rápidas" stroke="none" stroke-width="1" fill="none" fill-rule="evenodd">
        <g id="Página-de-Error---189" transform="translate(-376.000000, -260.000000)">
            <g id="img-bg" transform="translate(376.000000, 263.000000)">
                <g id="Atoms-/-Icons-/-32px-/-nav-/-robot" transform="translate(0.000000, 37.000000)" fill="#373737">
                    <path d="M95.2357369,71.3510547 C97.9769391,74.1171417 99.3343177,77.9840274 98.9297444,81.8745042 L98.9297444,89 L91.8683524,89 L91.8683524,81.8745042 C91.8683524,76.7441473 89.8911626,74.7490085 84.8069603,74.7490085 L14.1930397,74.7490085 C9.10883742,74.7490085 7.13164765,76.7441473 7.13164765,81.8745042 L7.13164765,89 L0.0702555863,89 L0.0702555863,81.8745042 C-0.334317674,77.9840274 1.0230609,74.1171417 3.76426314,71.3510547 C6.50546539,68.5849676 10.3375631,67.2152667 14.1930397,67.6235127 L84.8069603,67.6235127 C88.6624369,67.2152667 92.4945346,68.5849676 95.2357369,71.3510547 Z M70.6841762,49.8097733 L70.6841762,56.935269 L28.3158238,56.935269 L28.3158238,49.8097733 L70.6841762,49.8097733 Z M49.5,-1.45661261e-13 C58.4509836,-1.45661261e-13 66.4360058,5.67693403 69.4484326,14.1822944 L69.4484326,14.1822944 L70.6841762,14.1822944 C74.5396528,13.7740484 78.3717505,15.1437494 81.1129527,17.9098364 C83.854155,20.6759234 85.2115336,24.5428091 84.8069603,28.433286 L84.8069603,28.433286 L84.8069603,56.935269 L77.7455682,56.935269 L77.7455682,28.433286 C77.7455682,23.302929 75.7683785,21.3077902 70.6841762,21.3077902 L70.6841762,21.3077902 L28.3158238,21.3077902 C23.2316215,21.3077902 21.2544318,23.302929 21.2544318,28.433286 L21.2544318,28.433286 L21.2544318,56.935269 L14.1930397,56.935269 L14.1930397,28.433286 C13.7884664,24.5428091 15.145845,20.6759234 17.8870473,17.9098364 C20.6282495,15.1437494 24.4603472,13.7740484 28.3158238,14.1822944 L28.3158238,14.1822944 L29.5515674,14.1822944 C32.5639942,5.67693403 40.5490164,-1.45661261e-13 49.5,-1.45661261e-13 Z M35.3772159,28.433286 C39.277115,28.433286 42.4386079,31.6234791 42.4386079,35.5587817 C42.4386079,39.4940844 39.277115,42.6842775 35.3772159,42.6842775 C31.4773167,42.6842775 28.3158238,39.4940844 28.3158238,35.5587817 C28.3158238,31.6234791 31.4773167,28.433286 35.3772159,28.433286 Z M63.6227841,28.433286 C67.5226833,28.433286 70.6841762,31.6234791 70.6841762,35.5587817 C70.6841762,39.4940844 67.5226833,42.6842775 63.6227841,42.6842775 C59.722885,42.6842775 56.5613921,39.4940844 56.5613921,35.5587817 C56.5613921,31.6234791 59.722885,28.433286 63.6227841,28.433286 Z M49.5,7.20349886 C44.5145505,7.20349886 39.8984508,9.8558858 37.3544057,14.1822944 L37.3544057,14.1822944 L61.6455943,14.1822944 C59.1015492,9.8558858 54.4854495,7.20349886 49.5,7.20349886 Z" id="Combined-Shape"></path>
                </g>
                <path d="M127.5,0 C146.001539,0 161,14.7746033 161,33 C161,51.2253967 146.001539,66 127.5,66 C120.18304,66 113.413972,63.6892045 107.903834,59.7680376 L94,66 L99.8749689,51.6727649 C96.1690592,46.3627414 94,39.9308955 94,33 C94,14.7746033 108.998461,0 127.5,0 Z" id="Combined-Shape" stroke="#373737" stroke-width="5" fill="#FFFFFF"></path>
            </g>
        </g>
    </g>
</svg>