<?xml version="1.0" encoding="UTF-8"?>
<svg width="24px" height="24px" viewBox="0 0 24 24" version="1.1" xmlns="http://www.w3.org/2000/svg" xmlns:xlink="http://www.w3.org/1999/xlink">
    <!-- Generator: Sketch 61.2 (89653) - https://sketch.com -->
    <title>cl-icon--32px</title>
    <desc>Created with Sketch.</desc>
    <g id="Modelador-de-Procesos" stroke="none" stroke-width="1" fill="none" fill-rule="evenodd">
        <g id="Aceptar-Términos-y-Condiciones-(1)" transform="translate(-38.000000, -118.000000)" fill="#373737">
            <g id="icon-/-cl-icon--32px" transform="translate(34.000000, 114.000000)">
                <g id="icon-/-icons-/-alert-/-cl-i-info--outline">
                    <path d="M16,3.99999996 C22.627417,3.99999996 28,9.37258298 28,16 C28,19.1825979 26.7357179,22.2348449 24.4852814,24.4852814 C22.2348449,26.7357179 19.1825979,28 16,28 C9.37258298,28 3.99999996,22.627417 3.99999996,16 C3.99999996,9.37258298 9.37258298,3.99999996 16,3.99999996 Z M16,5.99999997 C10.4771525,5.99999997 5.99999997,10.4771525 5.99999997,16 C5.99999997,21.5228475 10.4771525,26 16,26 C21.5228475,26 26,21.5228475 26,16 C26,13.3478351 24.9464316,10.804296 23.0710678,8.92893217 C21.195704,7.05356838 18.6521649,5.99999997 16,5.99999997 Z M17,14 L17,23 L15,23 L15,14 L17,14 Z M17,9.99999998 L17,12 L15,12 L15,9.99999998 L17,9.99999998 Z" id="info--outline"></path>
                </g>
            </g>
        </g>
    </g>
</svg>