<?xml version="1.0" encoding="UTF-8"?>
<svg width="204px" height="46px" viewBox="0 0 204 46" version="1.1" xmlns="http://www.w3.org/2000/svg" xmlns:xlink="http://www.w3.org/1999/xlink">
    <!-- Generator: sketchtool 59.1 (101010) - https://sketch.com -->
    <title>CBC61E60-CF1E-49BA-9963-59A40199F00C</title>
    <desc>Created with sketchtool.</desc>
    <g id="Page-1" stroke="none" stroke-width="1" fill="none" fill-rule="evenodd">
        <g id="Implementación-de-Logotipo" transform="translate(-20.000000, -28.000000)">
            <g id="Group-34" transform="translate(20.000000, 28.000000)">
                <path d="M2.1812,2.8262 C2.1812,1.8212 2.9942,1.0072 3.9962,1.0072 C4.9992,1.0072 5.8122,1.8212 5.8122,2.8262 C5.8122,3.8312 4.9992,4.6442 3.9962,4.6442 C2.9942,4.6442 2.1812,3.8312 2.1812,2.8262" id="Fill-4" fill="#E4283C"></path>
                <path d="M33.4204,21.502 C33.4204,20.495 34.2354,19.679 35.2394,19.679 C36.2454,19.679 37.0594,20.495 37.0594,21.502 C37.0594,22.509 36.2454,23.325 35.2394,23.325 C34.2354,23.325 33.4204,22.509 33.4204,21.502" id="Fill-6" fill="#E4283C"></path>
                <path d="M13.5205,12.1646 C13.5205,11.1536 14.3385,10.3336 15.3475,10.3336 C16.3565,10.3336 17.1745,11.1536 17.1745,12.1646 C17.1745,13.1756 16.3565,13.9946 15.3475,13.9946 C14.3385,13.9946 13.5205,13.1756 13.5205,12.1646" id="Fill-8" fill="#E4283C"></path>
                <path d="M13.5366,30.7856 C13.5366,29.7806 14.3496,28.9666 15.3526,28.9666 C16.3556,28.9666 17.1676,29.7806 17.1676,30.7856 C17.1676,31.7906 16.3556,32.6046 15.3526,32.6046 C14.3496,32.6046 13.5366,31.7906 13.5366,30.7856" id="Fill-10" fill="#E4283C"></path>
                <path d="M45.8931,40.1094 C45.8931,39.1154 46.6971,38.3094 47.6901,38.3094 C48.6831,38.3094 49.4871,39.1154 49.4871,40.1094 C49.4871,41.1044 48.6831,41.9104 47.6901,41.9104 C46.6971,41.9104 45.8931,41.1044 45.8931,40.1094" id="Fill-12" fill="#E4283C"></path>
                <path d="M44.4961,1.0142 C44.4741,1.0132 44.4521,1.0072 44.4291,1.0072 L9.1121,1.0072 C8.1101,1.0072 7.2971,1.8212 7.2971,2.8262 C7.2971,3.8302 8.1101,4.6442 9.1121,4.6442 L44.4291,4.6442 C44.4321,4.6442 44.4351,4.6432 44.4381,4.6432 C44.4581,4.6432 44.4771,4.6472 44.4981,4.6462 C46.0311,4.5762 47.3841,5.8132 47.4441,7.3802 C47.5041,8.9482 46.2801,10.2722 44.7151,10.3322 C44.7091,10.3322 44.7051,10.3342 44.7001,10.3342 L20.4951,10.3342 C19.4931,10.3342 18.6811,11.1482 18.6811,12.1532 C18.6811,13.1572 19.4931,13.9722 20.4951,13.9722 L44.7851,13.9722 C44.7991,13.9722 44.8131,13.9682 44.8281,13.9672 C44.8371,13.9672 44.8451,13.9672 44.8531,13.9672 C48.4191,13.8302 51.2081,10.8142 51.0731,7.2422 C50.9381,3.7172 47.9761,0.9602 44.4961,1.0142" id="Fill-14" fill="#136CBE"></path>
                <path d="M44.3604,19.6475 C44.3254,19.6485 44.2924,19.6585 44.2584,19.6615 L40.3874,19.6615 C39.3844,19.6615 38.5724,20.4765 38.5724,21.4805 C38.5724,22.4845 39.3844,23.2995 40.3874,23.2995 L44.4294,23.2995 C44.4744,23.2995 44.5164,23.2895 44.5614,23.2855 C46.0684,23.2485 47.3854,24.4705 47.4444,26.0165 C47.5044,27.5845 46.2794,28.9085 44.7154,28.9685 C44.6474,28.9715 44.5824,28.9865 44.5154,28.9965 C44.4214,28.9805 44.3264,28.9665 44.2274,28.9665 L20.4954,28.9665 C19.4934,28.9665 18.6804,29.7815 18.6804,30.7855 C18.6804,31.7905 19.4934,32.6045 20.4954,32.6045 L44.2274,32.6045 C44.3214,32.6045 44.4114,32.5905 44.5024,32.5765 C44.5944,32.5915 44.6874,32.6045 44.7834,32.6045 C44.8064,32.6045 44.8294,32.6045 44.8534,32.6035 C48.4184,32.4665 51.2084,29.4495 51.0734,25.8775 C50.9364,22.3055 47.8984,19.5305 44.3604,19.6475" id="Fill-16" fill="#136CBE"></path>
                <path d="M30.1113,19.6616 L7.7933,19.6616 C7.7313,19.6616 7.6713,19.6736 7.6103,19.6806 C7.5013,19.6626 7.3893,19.6526 7.2753,19.6556 C6.5303,19.6856 5.7943,19.4166 5.2383,18.8996 C4.6813,18.3846 4.3593,17.6806 4.3303,16.9226 C4.2703,15.3546 5.4953,14.0306 7.0593,13.9706 C7.0823,13.9696 7.1023,13.9626 7.1243,13.9616 C7.1583,13.9636 7.1913,13.9726 7.2273,13.9726 L10.2093,13.9726 C11.2113,13.9726 12.0243,13.1576 12.0243,12.1526 C12.0243,11.1486 11.2113,10.3336 10.2093,10.3336 L7.2273,10.3336 C7.1823,10.3336 7.1403,10.3446 7.0963,10.3476 C7.0383,10.3436 6.9813,10.3336 6.9213,10.3356 C3.3563,10.4726 0.5673,13.4886 0.7023,17.0606 C0.7683,18.7906 1.5023,20.3916 2.7703,21.5686 C3.9753,22.6876 5.5263,23.2956 7.1603,23.2956 C7.2443,23.2956 7.3303,23.2936 7.4143,23.2906 C7.4563,23.2886 7.4953,23.2776 7.5373,23.2736 C7.6223,23.2856 7.7053,23.2986 7.7933,23.2986 L30.1113,23.2986 C31.1133,23.2986 31.9263,22.4846 31.9263,21.4806 C31.9263,20.4756 31.1133,19.6616 30.1113,19.6616" id="Fill-18" fill="#136CBE"></path>
                <path d="M42.5244,38.291 L8.0554,38.291 C7.9314,38.291 7.8094,38.304 7.6914,38.328 C7.5564,38.301 7.4184,38.284 7.2754,38.289 C6.5304,38.318 5.7954,38.049 5.2374,37.533 C4.6814,37.017 4.3584,36.313 4.3304,35.555 C4.2714,33.987 5.4954,32.663 7.0594,32.603 C7.0984,32.602 7.1354,32.591 7.1734,32.587 C7.2314,32.593 7.2864,32.604 7.3444,32.604 L10.2094,32.604 C11.2114,32.604 12.0244,31.79 12.0244,30.786 C12.0244,29.781 11.2114,28.967 10.2094,28.967 L7.3444,28.967 C7.2854,28.967 7.2314,28.978 7.1734,28.984 C7.0904,28.977 7.0074,28.965 6.9204,28.968 C3.3564,29.104 0.5664,32.121 0.7024,35.693 C0.7684,37.424 1.5034,39.024 2.7704,40.201 C3.9754,41.32 5.5254,41.928 7.1604,41.928 C7.2444,41.928 7.3294,41.926 7.4144,41.924 C7.5044,41.92 7.5894,41.903 7.6754,41.887 C7.7984,41.913 7.9254,41.928 8.0554,41.928 L42.5244,41.928 C43.5264,41.928 44.3394,41.114 44.3394,40.11 C44.3394,39.105 43.5264,38.291 42.5244,38.291" id="Fill-20" fill="#136CBE"></path>
                <path d="M153.9375,11.2773 C150.5505,11.2773 147.7085,12.4323 145.6455,14.3133 L145.6455,12.8893 C145.6465,12.8693 145.6515,12.8503 145.6515,12.8303 C145.6515,12.8093 145.6465,12.7913 145.6455,12.7703 L145.6455,12.7623 L145.6455,12.7623 C145.6085,11.7383 144.7735,10.9173 143.7425,10.9173 C142.7115,10.9173 141.8765,11.7383 141.8395,12.7623 L141.8335,12.7623 L141.8335,43.6313 L141.8555,43.6313 C141.9665,44.5833 142.7635,45.3243 143.7425,45.3243 C144.7215,45.3243 145.5185,44.5833 145.6295,43.6313 L145.6455,43.6313 L145.6455,43.4703 C145.6465,43.4503 145.6515,43.4313 145.6515,43.4113 C145.6515,43.3913 145.6465,43.3713 145.6455,43.3513 L145.6455,31.2263 C147.7435,33.1833 150.6165,34.4073 153.9375,34.4073 C160.8855,34.4073 165.8835,29.0603 165.8835,22.8213 C165.8835,16.4983 161.1395,11.2773 153.9375,11.2773 M153.9375,30.8423 C149.7015,30.8423 146.0585,27.4043 146.0585,22.8213 C146.0585,18.5773 149.7015,14.8423 153.9375,14.8423 C158.1745,14.8423 161.8165,18.5773 161.8165,22.8213 C161.8165,27.4043 158.1745,30.8423 153.9375,30.8423" id="Fill-22" fill="#8F8F8F"></path>
                <path d="M176.5918,30.75 C176.5908,30.75 176.5888,30.75 176.5868,30.75 L175.4478,30.75 C174.2198,30.75 172.9908,29.902 172.9908,27.398 L172.9908,2.296 C172.9918,2.276 172.9968,2.257 172.9968,2.237 C172.9968,2.217 172.9918,2.198 172.9908,2.178 L172.9908,2.12 L172.9858,2.12 C172.9248,1.12 172.1028,0.324 171.0878,0.324 C170.0728,0.324 169.2518,1.12 169.1908,2.12 L169.1788,2.12 L169.1788,27.695 C169.1788,32.321 171.5088,34.316 175.0248,34.316 L176.5918,34.316 L176.5918,34.296 C177.5698,34.296 178.3618,33.502 178.3618,32.523 C178.3618,31.544 177.5698,30.75 176.5918,30.75" id="Fill-24" fill="#8F8F8F"></path>
                <path d="M90.7368,12.8765 C90.7368,11.8345 89.8938,10.9915 88.8548,10.9915 C87.8148,10.9915 86.9718,11.8345 86.9718,12.8765 C86.9718,12.8875 86.9748,12.8965 86.9748,12.9065 L86.9748,32.1895 C86.9748,32.2005 86.9718,32.2095 86.9718,32.2195 C86.9718,32.2295 86.9748,32.2385 86.9748,32.2485 L86.9748,32.2655 L86.9768,32.2655 C87.0018,33.2845 87.8308,34.1055 88.8548,34.1055 C89.8778,34.1055 90.7068,33.2845 90.7318,32.2655 L90.7338,32.2655 L90.7338,32.2485 C90.7338,32.2385 90.7368,32.2295 90.7368,32.2195 C90.7368,32.2095 90.7338,32.2005 90.7338,32.1895 L90.7338,12.9065 C90.7338,12.8965 90.7368,12.8875 90.7368,12.8765" id="Fill-26" fill="#8F8F8F"></path>
                <path d="M137.0552,21.4058 L137.0552,21.3868 C137.0552,21.3548 137.0512,21.3228 137.0512,21.2918 L137.0512,20.9958 L137.0372,20.9958 C136.8452,15.4818 132.6352,10.9938 126.3012,10.9938 C122.3662,10.9938 119.2532,12.7328 117.4082,15.3678 C115.5642,12.7328 112.4512,10.9938 108.5152,10.9938 C102.1822,10.9938 97.9722,15.4818 97.7802,20.9958 L97.7622,20.9958 L97.7622,32.2558 C97.7622,33.2758 98.5862,34.1018 99.6032,34.1018 C100.6212,34.1018 101.4462,33.2758 101.4462,32.2558 L101.4462,21.3758 C101.4462,17.5548 104.7022,14.2038 108.5152,14.2038 C112.1992,14.2038 115.3482,17.3398 115.5602,20.9958 L115.5482,20.9958 L115.5482,32.2558 C115.5482,33.2758 116.3722,34.1018 117.3892,34.1018 C117.3952,34.1018 117.4002,34.0998 117.4062,34.0998 C117.4122,34.0998 117.4172,34.1018 117.4232,34.1018 C118.4402,34.1018 119.2652,33.2758 119.2652,32.2558 L119.2652,21.8558 C119.2652,21.8408 119.2692,21.8268 119.2692,21.8118 C119.2692,21.7998 119.2652,21.7878 119.2652,21.7758 L119.2652,21.4058 L119.2692,21.4058 C119.2692,21.3988 119.2692,21.3928 119.2692,21.3868 C119.2692,21.3548 119.2652,21.3228 119.2652,21.2918 L119.2652,20.9958 L119.2512,20.9958 C119.4592,17.3368 122.6162,14.2038 126.3012,14.2038 C130.1152,14.2038 133.3672,17.5648 133.3672,21.3848 L133.3672,32.2558 C133.3672,33.2758 134.1912,34.1018 135.2092,34.1018 C136.2262,34.1018 137.0512,33.2758 137.0512,32.2558 L137.0512,21.8558 C137.0512,21.8408 137.0552,21.8268 137.0552,21.8118 C137.0552,21.7998 137.0512,21.7878 137.0512,21.7758 L137.0512,21.4058 L137.0552,21.4058 Z" id="Fill-28" fill="#8F8F8F"></path>
                <path d="M203.9937,21.9082 C203.9937,17.8352 200.8757,11.3742 192.5097,11.3742 C185.7707,11.3742 180.6887,16.3052 180.6887,22.8452 C180.6887,29.6352 185.8497,34.3162 193.2417,34.3162 C196.5197,34.3162 199.3297,33.4182 201.5947,31.6482 C201.8217,31.4582 202.4077,30.9082 202.4077,30.3112 C202.4077,29.2752 201.3687,28.2192 200.3477,28.2192 C199.7937,28.2192 199.5277,28.3312 199.1757,28.5682 C197.5067,29.7032 195.6757,30.8152 193.3367,30.8152 C189.4517,30.8152 186.1837,28.8302 185.3647,25.3682 L185.0877,24.1922 L201.5997,24.1922 C203.0317,24.1922 203.9937,23.2742 203.9937,21.9082 L203.9937,21.9082 Z M185.0997,20.7202 C185.8087,17.0602 188.8697,14.8742 192.3407,14.8742 C195.8237,14.8742 199.0567,17.1142 199.6077,20.7202 L185.0997,20.7202 Z" id="Fill-30" fill="#8F8F8F"></path>
                <path d="M81.0356,27.7622 C81.0356,26.5032 80.7796,25.4492 80.2746,24.6352 C79.7686,23.8222 78.9206,23.1312 77.7526,22.5802 C76.5776,22.0212 74.9206,21.5142 72.8256,21.0742 C70.7746,20.6342 69.3536,20.1572 68.6026,19.6592 C67.8276,19.1492 67.4346,18.4202 67.4346,17.4952 C67.4346,16.4772 67.8576,15.6622 68.6916,15.0712 C69.5146,14.4912 70.6136,14.1982 71.9556,14.1982 C73.0676,14.1982 74.0116,14.3442 74.7626,14.6312 C75.5046,14.9152 76.3136,15.3162 77.1676,15.8242 C77.6256,16.0992 78.0036,16.3042 78.2886,16.4332 C78.5596,16.5522 78.8216,16.6112 79.0836,16.6112 C79.4536,16.6112 79.7786,16.4502 80.0506,16.1342 C80.3256,15.8112 80.4666,15.4092 80.4666,14.9402 C80.4666,14.0752 79.9616,13.3002 78.9676,12.6362 C78.0686,12.0142 77.0156,11.5342 75.8376,11.2092 C74.6576,10.8822 73.4316,10.7162 72.1906,10.7162 C70.4576,10.7162 68.8856,11.0152 67.5186,11.6052 C66.1616,12.1932 65.0836,13.0302 64.3126,14.0952 C63.5466,15.1542 63.1566,16.3622 63.1566,17.6842 C63.1566,19.4032 63.7536,20.7782 64.9306,21.7722 C66.1166,22.7792 68.1086,23.5902 70.8506,24.1832 C72.4916,24.5402 73.6846,24.8582 74.5016,25.1572 C75.3486,25.4692 75.9296,25.8132 76.2766,26.2092 C76.6256,26.6112 76.8036,27.1492 76.8036,27.8102 C76.8036,28.8302 76.3556,29.6322 75.4726,30.1882 C74.5996,30.7362 73.3846,31.0122 71.8596,31.0122 C70.4986,31.0122 69.3486,30.8512 68.4386,30.5302 C67.5346,30.2152 66.5986,29.7982 65.6616,29.2932 C64.8006,28.8002 64.1716,28.5512 63.7866,28.5512 C63.3836,28.5512 63.0596,28.7072 62.7986,29.0242 C62.5366,29.3432 62.4046,29.7452 62.4046,30.2202 C62.4046,30.6782 62.5136,31.0732 62.7386,31.4322 C62.9616,31.7912 63.3526,32.1432 63.9006,32.4772 L63.9036,32.4802 C65.9136,33.7842 68.5436,34.4462 71.7186,34.4462 C74.5436,34.4462 76.8296,33.8242 78.5136,32.6002 C80.1856,31.3842 81.0356,29.7582 81.0356,27.7622" id="Fill-32" fill="#8F8F8F"></path>
            </g>
        </g>
    </g>
</svg>